<svg xmlns="http://www.w3.org/2000/svg" viewBox="0 0 64 64" role="img" aria-labelledby="title desc">
  <title id="title">Biểu trưng Vở Toán</title>
  <desc id="desc">Cuốn sách mở tạo hình chữ V cùng dấu cộng Toán học.</desc>
  <defs>
    <linearGradient id="brand-gradient" x1="7" y1="7" x2="57" y2="57" gradientUnits="userSpaceOnUse">
      <stop stop-color="#315EFB"/>
      <stop offset="1" stop-color="#7657D8"/>
    </linearGradient>
    <linearGradient id="page-glow" x1="15" y1="19" x2="48" y2="47" gradientUnits="userSpaceOnUse">
      <stop stop-color="#FFFFFF"/>
      <stop offset="1" stop-color="#E9EDFF"/>
    </linearGradient>
  </defs>
  <rect x="2" y="2" width="60" height="60" rx="19" fill="url(#brand-gradient)"/>
  <path d="M14 18.5c7.4 0 13.4 2 18 6.3V49c-4.8-4-10.8-6-18-6V18.5Z" fill="url(#page-glow)"/>
  <path d="M50 18.5c-7.4 0-13.4 2-18 6.3V49c4.8-4 10.8-6 18-6V18.5Z" fill="#FFFFFF" fill-opacity=".9"/>
  <path d="M32 24.8V49" fill="none" stroke="#315EFB" stroke-opacity=".34" stroke-width="2" stroke-linecap="round"/>
  <path d="M18 25c3.6.2 6.7 1 9.4 2.4M18 31c3.6.2 6.7 1 9.4 2.4M46 25c-3.6.2-6.7 1-9.4 2.4" fill="none" stroke="#315EFB" stroke-opacity=".34" stroke-width="1.7" stroke-linecap="round"/>
  <circle cx="49" cy="15" r="8" fill="#FF6A4A" stroke="#FFFFFF" stroke-width="2"/>
  <path d="M49 11.5v7M45.5 15h7" fill="none" stroke="#FFFFFF" stroke-width="2.2" stroke-linecap="round"/>
</svg>
